<?xml version="1.0" encoding="utf-8"?>
<!-- Generator: Adobe Illustrator 25.2.0, SVG Export Plug-In . SVG Version: 6.00 Build 0)  -->
<svg version="1.1" id="Layer_1" xmlns="http://www.w3.org/2000/svg" xmlns:xlink="http://www.w3.org/1999/xlink" x="0px" y="0px"
	 viewBox="0 0 22 22" style="enable-background:new 0 0 22 22;" xml:space="preserve">
<style type="text/css">
	.st0{opacity:0.25;fill-rule:evenodd;clip-rule:evenodd;fill:#F7F7F7;enable-background:new    ;}
	.st1{fill-rule:evenodd;clip-rule:evenodd;fill:#F7F7F7;}
</style>
<path class="st0" d="M3.1,6.5c0.2-1.8,1.6-3.2,3.4-3.4C7.7,2.9,9.3,2.8,11,2.8c1.7,0,3.3,0.1,4.5,0.3c1.8,0.2,3.2,1.6,3.4,3.4
	c0.2,1.2,0.3,2.8,0.3,4.5c0,1.7-0.1,3.3-0.3,4.5c-0.2,1.8-1.6,3.2-3.4,3.4c-1.2,0.2-2.8,0.3-4.5,0.3c-1.7,0-3.3-0.1-4.5-0.3
	c-1.8-0.2-3.2-1.6-3.4-3.4c-0.2-1.2-0.3-2.8-0.3-4.5C2.8,9.3,2.9,7.7,3.1,6.5z"/>
<path class="st1" d="M8.3,11c0,0.5-0.4,0.9-0.9,0.9c-0.5,0-0.9-0.4-0.9-0.9c0-0.5,0.4-0.9,0.9-0.9C7.8,10.1,8.3,10.5,8.3,11z
	 M11.9,11c0,0.5-0.4,0.9-0.9,0.9c-0.5,0-0.9-0.4-0.9-0.9c0-0.5,0.4-0.9,0.9-0.9C11.5,10.1,11.9,10.5,11.9,11z M14.7,11.9
	c0.5,0,0.9-0.4,0.9-0.9c0-0.5-0.4-0.9-0.9-0.9c-0.5,0-0.9,0.4-0.9,0.9C13.8,11.5,14.2,11.9,14.7,11.9z"/>
</svg>
