<?xml version="1.0" encoding="utf-8"?>
<!-- Generator: Adobe Illustrator 25.2.0, SVG Export Plug-In . SVG Version: 6.00 Build 0)  -->
<svg version="1.1" id="Layer_1" xmlns="http://www.w3.org/2000/svg" xmlns:xlink="http://www.w3.org/1999/xlink" x="0px" y="0px"
	 viewBox="0 0 22 22" style="enable-background:new 0 0 22 22;" xml:space="preserve">
<style type="text/css">
	.st0{opacity:0.3;fill:#F7F7F7;enable-background:new    ;}
	.st1{fill-rule:evenodd;clip-rule:evenodd;fill:#F7F7F7;}
</style>
<path class="st0" d="M11.9,8.5L10.1,8c0.7-2.1,1.8-3.4,3.4-3.8c0.8-0.2,2.1-1.5,2.1-2.3h1.8c0,1.6-1.8,3.7-3.4,4.1
	C13.1,6.1,12.4,7,11.9,8.5z"/>
<path class="st1" d="M12.2,15.6H9.8c-0.9,1.1-2.3,1.8-3.9,1.8c-2.8,0-5-2.3-5-5c0-2.8,2.3-5,5-5c0.2,0,0.4,0,0.7,0
	c0.2,0,0.4,0,0.5,0h7.7c0.2,0,0.4,0,0.5,0c0.2,0,0.4,0,0.7,0c2.8,0,5,2.3,5,5c0,2.8-2.3,5-5,5C14.5,17.4,13.1,16.7,12.2,15.6z
	 M4.6,9.7c0-0.3,0.2-0.5,0.5-0.5h0.8c0.3,0,0.5,0.2,0.5,0.5v0.8c0,0.3-0.2,0.5-0.5,0.5H5.1c-0.3,0-0.5-0.2-0.5-0.5V9.7z M6.9,11
	c-0.3,0-0.5,0.2-0.5,0.5v0.8c0,0.3,0.2,0.5,0.5,0.5h0.8c0.3,0,0.5-0.2,0.5-0.5v-0.8C8.2,11.2,8,11,7.7,11H6.9z M17.4,11
	c0.5,0,0.9-0.4,0.9-0.9c0-0.5-0.4-0.9-0.9-0.9c-0.5,0-0.9,0.4-0.9,0.9C16.5,10.6,16.9,11,17.4,11z M17.4,12.8c0,0.5-0.4,0.9-0.9,0.9
	c-0.5,0-0.9-0.4-0.9-0.9c0-0.5,0.4-0.9,0.9-0.9C17,11.9,17.4,12.3,17.4,12.8z M4.6,13.3c0-0.3,0.2-0.5,0.5-0.5h0.8
	c0.3,0,0.5,0.2,0.5,0.5v0.8c0,0.3-0.2,0.5-0.5,0.5H5.1c-0.3,0-0.5-0.2-0.5-0.5V13.3z M3.2,11c-0.3,0-0.5,0.2-0.5,0.5v0.8
	c0,0.3,0.2,0.5,0.5,0.5h0.8c0.3,0,0.5-0.2,0.5-0.5v-0.8c0-0.3-0.2-0.5-0.5-0.5H3.2z"/>
</svg>
