<?xml version="1.0" encoding="utf-8"?>
<!-- Generator: Adobe Illustrator 25.2.0, SVG Export Plug-In . SVG Version: 6.00 Build 0)  -->
<svg version="1.1" id="Layer_1" xmlns="http://www.w3.org/2000/svg" xmlns:xlink="http://www.w3.org/1999/xlink" x="0px" y="0px"
	 viewBox="0 0 22 22" style="enable-background:new 0 0 22 22;" xml:space="preserve">
<style type="text/css">
	.st0{fill:#F7F7F7;}
	.st1{opacity:0.3;fill:#F7F7F7;enable-background:new    ;}
</style>
<path class="st0" d="M5.5,3.7L5.5,3.7c1,0,1.8,0.8,1.8,1.8v0c0,1-0.8,1.8-1.8,1.8h0c-1,0-1.8-0.8-1.8-1.8v0C3.7,4.5,4.5,3.7,5.5,3.7
	z"/>
<path class="st1" d="M5.5,9.2L5.5,9.2c1,0,1.8,0.8,1.8,1.8v0c0,1-0.8,1.8-1.8,1.8h0c-1,0-1.8-0.8-1.8-1.8v0C3.7,10,4.5,9.2,5.5,9.2z
	"/>
<path class="st0" d="M11,3.7L11,3.7c1,0,1.8,0.8,1.8,1.8v0c0,1-0.8,1.8-1.8,1.8h0c-1,0-1.8-0.8-1.8-1.8v0C9.2,4.5,10,3.7,11,3.7z"/>
<path class="st0" d="M11,9.2L11,9.2c1,0,1.8,0.8,1.8,1.8v0c0,1-0.8,1.8-1.8,1.8h0c-1,0-1.8-0.8-1.8-1.8v0C9.2,10,10,9.2,11,9.2z"/>
<path class="st0" d="M16.5,3.7L16.5,3.7c1,0,1.8,0.8,1.8,1.8v0c0,1-0.8,1.8-1.8,1.8h0c-1,0-1.8-0.8-1.8-1.8v0
	C14.7,4.5,15.5,3.7,16.5,3.7z"/>
<path class="st0" d="M16.5,9.2L16.5,9.2c1,0,1.8,0.8,1.8,1.8v0c0,1-0.8,1.8-1.8,1.8h0c-1,0-1.8-0.8-1.8-1.8v0
	C14.7,10,15.5,9.2,16.5,9.2z"/>
<path class="st1" d="M11,14.7L11,14.7c1,0,1.8,0.8,1.8,1.8v0c0,1-0.8,1.8-1.8,1.8h0c-1,0-1.8-0.8-1.8-1.8v0
	C9.2,15.5,10,14.7,11,14.7z"/>
<path class="st1" d="M16.5,14.7L16.5,14.7c1,0,1.8,0.8,1.8,1.8v0c0,1-0.8,1.8-1.8,1.8h0c-1,0-1.8-0.8-1.8-1.8v0
	C14.7,15.5,15.5,14.7,16.5,14.7z"/>
</svg>
