<?xml version="1.0" encoding="utf-8"?>
<!-- Generator: Adobe Illustrator 25.2.0, SVG Export Plug-In . SVG Version: 6.00 Build 0)  -->
<svg version="1.1" id="Layer_1" xmlns="http://www.w3.org/2000/svg" xmlns:xlink="http://www.w3.org/1999/xlink" x="0px" y="0px"
	 viewBox="0 0 22 22" style="enable-background:new 0 0 22 22;" xml:space="preserve">
<style type="text/css">
	.st0{opacity:0.3;fill:#F7F7F7;enable-background:new    ;}
	.st1{fill:#F7F7F7;}
</style>
<path class="st0" d="M17.9,3.7L17.9,3.7c0.8,0,1.4,0.6,1.4,1.4V17c0,0.8-0.6,1.4-1.4,1.4l0,0c-0.8,0-1.4-0.6-1.4-1.4V5
	C16.5,4.3,17.1,3.7,17.9,3.7z"/>
<path class="st1" d="M13.3,8.2L13.3,8.2c0.8,0,1.4,0.6,1.4,1.4V17c0,0.8-0.6,1.4-1.4,1.4l0,0c-0.8,0-1.4-0.6-1.4-1.4V9.6
	C11.9,8.9,12.5,8.2,13.3,8.2z"/>
<path class="st1" d="M4.1,14.7L4.1,14.7c0.8,0,1.4,0.6,1.4,1.4V17c0,0.8-0.6,1.4-1.4,1.4l0,0c-0.8,0-1.4-0.6-1.4-1.4V16
	C2.8,15.3,3.4,14.7,4.1,14.7z"/>
<path class="st1" d="M8.7,11.9L8.7,11.9c0.8,0,1.4,0.6,1.4,1.4V17c0,0.8-0.6,1.4-1.4,1.4l0,0c-0.8,0-1.4-0.6-1.4-1.4v-3.7
	C7.3,12.5,7.9,11.9,8.7,11.9z"/>
</svg>
