<svg xmlns="http://www.w3.org/2000/svg" viewBox="0 0 11.08 12"><defs><style>.cls-1{fill:#878898;}</style></defs><g id="Layer_2" data-name="Layer 2"><g id="Layer_1-2" data-name="Layer 1"><path class="cls-1" d="M6.64,1.41,6.45.49A.58.58,0,0,0,6.24.14.59.59,0,0,0,5.86,0H.76A.79.79,0,0,0,.22.22.79.79,0,0,0,0,.76V11.29a.67.67,0,0,0,.21.5.67.67,0,0,0,.5.21.67.67,0,0,0,.49-.21.67.67,0,0,0,.21-.5V7.06h4L5.55,8a.58.58,0,0,0,.21.34.62.62,0,0,0,.39.14h4a1,1,0,0,0,.68-.28,1,1,0,0,0,.29-.69V2.38a1,1,0,0,0-.29-.68.92.92,0,0,0-.68-.29Z"/></g></g></svg>