<svg xmlns="http://www.w3.org/2000/svg" viewBox="0 0 10.55 12"><defs><style>.cls-1{fill:#878898;}</style></defs><g id="Layer_2" data-name="Layer 2"><g id="Layer_1-2" data-name="Layer 1"><path class="cls-1" d="M0,10.24V9.38A1.84,1.84,0,0,1,.29,8.5,1.72,1.72,0,0,1,1,7.9a11.49,11.49,0,0,1,8.55,0,1.71,1.71,0,0,1,1,1.48v.86a1.79,1.79,0,0,1-.13.68,2,2,0,0,1-.38.57,1.88,1.88,0,0,1-.58.38,1.7,1.7,0,0,1-.67.13h-7a1.7,1.7,0,0,1-.67-.13,1.73,1.73,0,0,1-.57-.38,1.81,1.81,0,0,1-.39-.57A2,2,0,0,1,0,10.24ZM5.28,0A2.94,2.94,0,0,0,3.65.49a2.95,2.95,0,0,0-1.25,3A2.9,2.9,0,0,0,3.2,5a2.91,2.91,0,0,0,3.2.64A2.91,2.91,0,0,0,8,1.81,2.77,2.77,0,0,0,7.35.86,3.06,3.06,0,0,0,6.4.22,3.1,3.1,0,0,0,5.28,0Z"/></g></g></svg>