<svg width="9" height="17" viewBox="0 0 9 17" fill="none" xmlns="http://www.w3.org/2000/svg">
<path d="M7.76855 16.0445C7.46148 16.0513 7.20217 15.9295 6.99063 15.7197C4.82066 13.568 2.65068 11.4163 0.480709 9.26459C0.0166887 8.80448 0.0166887 8.16167 0.473885 7.70156C2.63021 5.55662 4.78654 3.41844 6.94969 1.28026C7.38642 0.847213 8.05515 0.85398 8.48505 1.28026C8.92178 1.70654 8.91495 2.37642 8.46458 2.823C6.82686 4.4537 5.18915 6.07763 3.5446 7.70156C3.33307 7.91132 3.12835 8.12784 2.90999 8.32407C2.78034 8.4391 2.80081 8.50676 2.90999 8.62179C3.83803 9.52848 4.75924 10.4487 5.68046 11.3622C6.6085 12.2824 7.53654 13.2026 8.46458 14.1229C8.79212 14.4476 8.94225 14.8198 8.80577 15.2731C8.68294 15.7468 8.26669 16.0445 7.76855 16.0445Z" fill="#535370"/>
</svg>
