<svg xmlns="http://www.w3.org/2000/svg" viewBox="0 0 148 36"><defs><style>.cls-1{fill:#f0f2f5;}</style></defs><g id="Layer_2" data-name="Layer 2"><g id="Layer_1-2" data-name="Layer 1"><path class="cls-1" d="M106.6,15.09v3.35h-2.13v2.2h2.13v7.47c0,2.55,1.16,3.57,4.1,3.57a7.88,7.88,0,0,0,1.43-.14V29.37a8,8,0,0,1-1,.06c-1.32,0-1.89-.61-1.89-2v-6.8h2.89v-2.2h-2.89V15.09Z"/><path class="cls-1" d="M119.61,31.86c3.9,0,6.29-2.59,6.29-6.87s-2.4-6.87-6.29-6.87-6.31,2.6-6.31,6.87S115.69,31.86,119.61,31.86Zm0-2.32c-2.3,0-3.59-1.66-3.59-4.55s1.29-4.55,3.59-4.55,3.58,1.68,3.58,4.55S121.89,29.54,119.61,29.54Z"/><path class="cls-1" d="M128,31.6h2.64V23.8A3.12,3.12,0,0,1,134,20.69a7.65,7.65,0,0,1,1.47.15V18.27a5.78,5.78,0,0,0-1.18-.11,3.64,3.64,0,0,0-3.61,2.25h-.19v-2H128Z"/><path class="cls-1" d="M142,20.35a3.2,3.2,0,0,1,3.29,3.42h-6.75A3.4,3.4,0,0,1,142,20.35ZM145.3,28a3.2,3.2,0,0,1-3.18,1.61c-2.11,0-3.47-1.47-3.56-3.79V25.7H148v-.91c0-4.15-2.25-6.67-6-6.67s-6.17,2.69-6.17,6.91,2.35,6.83,6.18,6.83c3,0,5.19-1.46,5.79-3.83Z"/><path class="cls-1" d="M89.29,26.72C89.5,30,92.23,32,96.3,32c4.35,0,7.08-2.17,7.08-5.65,0-2.73-1.56-4.24-5.32-5.11l-2-.49c-2.4-.55-3.36-1.3-3.36-2.59,0-1.64,1.5-2.71,3.75-2.71s3.61,1,3.88,2.72h2.77c-.16-3.06-2.88-5.21-6.61-5.21-4,0-6.68,2.15-6.68,5.39,0,2.67,1.51,4.25,4.83,5L97,24c2.43.56,3.5,1.39,3.5,2.78,0,1.61-1.68,2.78-4,2.78-2.46,0-4.16-1.1-4.4-2.82Z"/><path class="cls-1" d="M62,18.16a4.66,4.66,0,0,0-4.2,2.4h-.19V18.38H55V36h2.64V29.6h.2A4.37,4.37,0,0,0,62,31.82c3.37,0,5.52-2.63,5.52-6.83S65.36,18.16,62,18.16Zm-.75,11.32c-2.21,0-3.59-1.73-3.59-4.48s1.38-4.5,3.6-4.5S64.8,22.19,64.8,25,63.46,29.48,61.21,29.48Z"/><path class="cls-1" d="M76.74,18.16a4.66,4.66,0,0,0-4.2,2.4h-.19V18.38H69.81V36h2.64V29.6h.2a4.37,4.37,0,0,0,4.12,2.22c3.37,0,5.52-2.63,5.52-6.83S80.14,18.16,76.74,18.16ZM76,29.48c-2.21,0-3.59-1.73-3.59-4.48s1.38-4.5,3.6-4.5,3.58,1.69,3.58,4.49S78.24,29.48,76,29.48Z"/><path class="cls-1" d="M50.29,31.6h3L46.69,13.44H43.63L37,31.6h2.93l1.69-4.82h7ZM45,16.74h.22l2.66,7.68H42.34Z"/><path class="cls-1" d="M22.55,17a7.27,7.27,0,0,1,3.59-6.1,7.86,7.86,0,0,0-6.08-3.17c-2.56-.26-5,1.47-6.34,1.47s-3.34-1.45-5.5-1.41a8.23,8.23,0,0,0-6.82,4C-1.55,16.74.65,24,3.47,28,4.89,29.9,6.54,32.08,8.7,32s2.9-1.3,5.45-1.3S17.42,32,19.63,32s3.69-2,5.06-3.92A16,16,0,0,0,27,23.48,7.08,7.08,0,0,1,22.55,17Z"/><path class="cls-1" d="M18.39,5.13A7.05,7.05,0,0,0,20.09,0,7.62,7.62,0,0,0,15.2,2.44a6.65,6.65,0,0,0-1.74,4.94A6.42,6.42,0,0,0,18.39,5.13Z"/></g></g></svg>