<svg xmlns="http://www.w3.org/2000/svg" viewBox="0 0 15 12.77"><defs><style>.cls-1{fill:#f7f7f7;fill-rule:evenodd;}</style></defs><g id="Layer_2" data-name="Layer 2"><g id="Layer_1-2" data-name="Layer 1"><path class="cls-1" d="M7.31,2,4,5.23l9.85,0a1.12,1.12,0,0,1,.44.09,1.17,1.17,0,0,1,.62.62,1.32,1.32,0,0,1,.08.44,1.12,1.12,0,0,1-.09.44,1.05,1.05,0,0,1-.25.37,1.15,1.15,0,0,1-.37.25,1,1,0,0,1-.44.08L4,7.52l3.26,3.3a1,1,0,0,1,.24.37,1.12,1.12,0,0,1,0,.88,1.15,1.15,0,0,1-.25.37,1.18,1.18,0,0,1-.81.33,1.11,1.11,0,0,1-.81-.34L.27,7A1,1,0,0,1,0,6.35a.91.91,0,0,1,.28-.66L5.7.33a1.15,1.15,0,0,1,1.62,0,1.12,1.12,0,0,1,.24.37,1.12,1.12,0,0,1,0,.88A1.05,1.05,0,0,1,7.31,2Z"/></g></g></svg>