<svg xmlns="http://www.w3.org/2000/svg" viewBox="0 0 15 11.15"><defs><style>.cls-1{fill:#f7f7f7;}</style></defs><g id="Layer_2" data-name="Layer 2"><g id="Layer_1-2" data-name="Layer 1"><path class="cls-1" d="M4.26,10.57.54,6.85a1.75,1.75,0,0,1-.4-.6,1.84,1.84,0,0,1,1.7-2.54,1.88,1.88,0,0,1,1.3.54L5.47,6.58a.22.22,0,0,0,.17.07.24.24,0,0,0,.18-.07l6-6A1.84,1.84,0,0,1,13.16,0a1.81,1.81,0,0,1,1.3.54,1.81,1.81,0,0,1,.4.59,2,2,0,0,1,.14.71,1.85,1.85,0,0,1-.54,1.3L7,10.57a2,2,0,0,1-1.39.58A2,2,0,0,1,4.26,10.57Z"/></g></g></svg>