<svg xmlns="http://www.w3.org/2000/svg" xmlns:xlink="http://www.w3.org/1999/xlink" viewBox="0 0 172.05 39.85"><defs><style>.cls-1{fill:#f0f2f5;}.cls-2{fill:url(#linear-gradient);}.cls-3{fill:url(#linear-gradient-2);}.cls-4{fill:url(#linear-gradient-3);}.cls-5{fill:url(#linear-gradient-4);}</style><linearGradient id="linear-gradient" x1="-269.41" y1="246.62" x2="-294.37" y2="221.66" gradientTransform="matrix(1, 0, 0, -1, 287, 248.95)" gradientUnits="userSpaceOnUse"><stop offset="0" stop-color="#00a0ff"/><stop offset="0.01" stop-color="#00a1ff"/><stop offset="0.26" stop-color="#00beff"/><stop offset="0.51" stop-color="#00d2ff"/><stop offset="0.76" stop-color="#00dfff"/><stop offset="1" stop-color="#00e3ff"/></linearGradient><linearGradient id="linear-gradient-2" x1="-251.51" y1="229.82" x2="-287.5" y2="229.82" gradientTransform="matrix(1, 0, 0, -1, 287, 248.95)" gradientUnits="userSpaceOnUse"><stop offset="0" stop-color="#ffe000"/><stop offset="0.41" stop-color="#ffbd00"/><stop offset="0.78" stop-color="orange"/><stop offset="1" stop-color="#ff9c00"/></linearGradient><linearGradient id="linear-gradient-3" x1="-264.9" y1="226.41" x2="-298.76" y2="192.56" gradientTransform="matrix(1, 0, 0, -1, 287, 248.95)" gradientUnits="userSpaceOnUse"><stop offset="0" stop-color="#ff3a44"/><stop offset="1" stop-color="#c31162"/></linearGradient><linearGradient id="linear-gradient-4" x1="-290.98" y1="259.31" x2="-275.86" y2="244.19" gradientTransform="matrix(1, 0, 0, -1, 287, 248.95)" gradientUnits="userSpaceOnUse"><stop offset="0" stop-color="#32a071"/><stop offset="0.07" stop-color="#2da771"/><stop offset="0.48" stop-color="#15cf74"/><stop offset="0.8" stop-color="#06e775"/><stop offset="1" stop-color="#00f076"/></linearGradient></defs><g id="Layer_2" data-name="Layer 2"><g id="Layer_1-2" data-name="Layer 1"><path class="cls-1" d="M86.32,21.75A6.25,6.25,0,1,0,92.66,28,6.2,6.2,0,0,0,86.32,21.75Zm0,10A3.63,3.63,0,0,1,82.75,28a3.57,3.57,0,1,1,7.13,0A3.63,3.63,0,0,1,86.32,31.78Zm-13.85-10A6.25,6.25,0,1,0,78.82,28,6.2,6.2,0,0,0,72.47,21.75Zm0,10A3.63,3.63,0,0,1,68.91,28,3.57,3.57,0,1,1,76,28,3.63,3.63,0,0,1,72.47,31.78ZM56,23.67v2.65h6.42A5.49,5.49,0,0,1,61,29.65a6.6,6.6,0,0,1-5,1.94A7,7,0,0,1,56,17.5a6.91,6.91,0,0,1,4.84,1.89l1.89-1.87A9.45,9.45,0,0,0,56,14.85a9.9,9.9,0,0,0-10,9.7,9.89,9.89,0,0,0,10,9.69,9.06,9.06,0,0,0,6.85-2.72,8.7,8.7,0,0,0,2.32-6.2A9,9,0,0,0,65,23.67Zm67.34,2.06a5.86,5.86,0,0,0-5.41-4A6,6,0,0,0,112,28a6.15,6.15,0,0,0,6.28,6.24,6.31,6.31,0,0,0,5.27-2.77l-2.16-1.42a3.6,3.6,0,0,1-3.11,1.73,3.24,3.24,0,0,1-3.07-1.89l8.46-3.45Zm-8.62,2.08a3.44,3.44,0,0,1,3.3-3.64,2.45,2.45,0,0,1,2.35,1.32Zm-6.87,6.05h2.77V15.51h-2.77Zm-4.55-10.71h-.1a4.42,4.42,0,0,0-3.33-1.4,6.25,6.25,0,0,0,0,12.49,4.32,4.32,0,0,0,3.33-1.42h.1v.9c0,2.39-1.3,3.67-3.38,3.67a3.49,3.49,0,0,1-3.18-2.22l-2.42,1a6,6,0,0,0,5.6,3.69c3.26,0,6-1.89,6-6.51V22.14h-2.63v1Zm-3.19,8.63A3.6,3.6,0,0,1,96.6,28a3.63,3.63,0,0,1,3.52-3.8A3.53,3.53,0,0,1,103.5,28,3.51,3.51,0,0,1,100.12,31.78Zm36.24-16.27h-6.64V33.86h2.77V26.91h3.87a5.86,5.86,0,0,0,6.1-5.7A5.86,5.86,0,0,0,136.36,15.51Zm.07,8.85h-3.94V18.07h3.94a3.15,3.15,0,1,1,0,6.29Zm17.14-2.64a5.23,5.23,0,0,0-4.95,2.81l2.46,1a3,3,0,0,1,5.45,1v.19a6.19,6.19,0,0,0-2.89-.71c-2.65,0-5.35,1.44-5.35,4.13,0,2.46,2.17,4,4.61,4a4,4,0,0,0,3.54-1.79h.09v1.41h2.68v-7C159.21,23.54,156.75,21.72,153.57,21.72Zm-.33,10.06c-.91,0-2.18-.45-2.18-1.56,0-1.42,1.58-2,2.94-2a5,5,0,0,1,2.53.61A3.33,3.33,0,0,1,153.24,31.78ZM169,22.12l-3.17,8h-.1l-3.3-8h-3l4.95,11.12-2.82,6.19h2.89l7.63-17.31ZM144,33.86h2.77V15.51H144Z"/><path class="cls-2" d="M.69.59A3,3,0,0,0,0,2.68v32.9a3,3,0,0,0,.69,2.09l.11.1L19.23,19.35v-.44L.8.48Z"/><path class="cls-3" d="M25.37,25.49l-6.14-6.14v-.44l6.14-6.14.14.08L32.79,17c2.07,1.18,2.07,3.11,0,4.3l-7.28,4.13Z"/><path class="cls-4" d="M25.51,25.41l-6.29-6.28L.69,37.67c.68.72,1.81.81,3.09.09Z"/><path class="cls-5" d="M25.51,12.85,3.78.5C2.5-.22,1.37-.13.69.59L19.23,19.13Z"/></g></g></svg>