<?xml version="1.0" encoding="utf-8"?>
<!-- Generator: Adobe Illustrator 27.0.0, SVG Export Plug-In . SVG Version: 6.00 Build 0)  -->
<svg version="1.1" id="Layer_1" xmlns="http://www.w3.org/2000/svg" xmlns:xlink="http://www.w3.org/1999/xlink" x="0px" y="0px"
	 viewBox="0 0 24 30" style="enable-background:new 0 0 24 30;" xml:space="preserve">
<g>
	<path d="M23.2,23.8l-0.4-9.5c0-0.5,0-0.9-0.1-1.4c0-1-0.1-2.1-0.2-3.1C22.5,8.2,21.2,7,19.5,7h-1.6c0.1-1.7-0.4-3-1.3-4.2
		c-1-1.3-2.4-2-4.1-2.1C11,0.6,9.7,1,8.6,1.8C6.9,3.1,6.1,4.8,6.2,7L5.7,7C5.2,7,4.8,7,4.3,7C3,7.1,1.9,7.9,1.5,9.1
		c-0.1,0.5-0.2,0.9-0.2,1.4c-0.1,2.3-0.2,4.5-0.3,6.8L1,19.1c-0.1,2.3-0.2,4.6-0.3,6.9c0,0.8,0.3,1.6,0.8,2.2
		c0.6,0.6,1.4,0.9,2.2,0.9c2.8,0,5.5,0,8.3,0s5.5,0,8.3,0c0.9,0,1.6-0.3,2.2-0.9c0.6-0.6,0.9-1.4,0.8-2.2
		C23.3,25.3,23.3,24.5,23.2,23.8z M21.1,26.1c0,0.3-0.1,0.5-0.2,0.7c-0.1,0.1-0.4,0.2-0.6,0.2H3.8c-0.3,0-0.6-0.1-0.7-0.2
		C3,26.6,2.9,26.3,2.9,26c0.1-2.2,0.2-4.4,0.3-6.6c0.1-2.3,0.2-4.6,0.3-7c0-0.3,0-0.6,0-0.9c0-0.5,0-0.9,0.1-1.4
		c0-0.6,0.3-0.8,0.9-0.8l10.5,0c1.5,0,2.9,0,4.4,0c0.6,0,0.8,0.2,0.9,0.8c0.1,1.9,0.2,3.7,0.3,5.6l0.4,9.5c0,0.2,0,0.3,0,0.5
		C21.1,25.8,21.1,25.9,21.1,26.1z M10.2,3.5L10.2,3.5c1.2-0.8,2.5-0.7,3.7,0c1.2,0.8,1.7,1.9,1.7,3.5H8.5C8.4,5.4,8.9,4.3,10.2,3.5z
		"/>
	<path d="M16.9,10.9c-0.6-0.2-1.2,0.2-1.4,0.8c0,0.1,0,0.1,0,0.2c0,0.1,0,0.1,0,0.2c-0.3,0.9-0.9,1.7-1.7,2.1
		c-0.9,0.5-1.8,0.6-2.7,0.3c-1.3-0.4-2.1-1.3-2.4-2.6c-0.1-0.6-0.4-0.9-0.9-1c-0.4-0.1-0.8,0-1.1,0.3c-0.3,0.3-0.4,0.7-0.3,1.2
		c0.7,2.7,3.1,4.5,6.2,4.5c2.1-0.1,3.8-1.3,4.9-3.4c0.2-0.4,0.3-0.8,0.4-1.2C17.9,11.7,17.5,11.1,16.9,10.9z"/>
</g>
</svg>
