<svg width="25" height="20" viewBox="0 0 25 20" fill="none" xmlns="http://www.w3.org/2000/svg">
<path d="M5.46853 19.4679C5.09201 19.3479 4.88732 19.0763 4.72741 18.7236C3.3991 15.7773 2.05841 12.8365 0.721411 9.89465C0.431093 9.25686 0.483638 9.00778 1.0077 8.53811C3.19604 6.57602 5.72595 5.26121 8.58725 4.60805C9.51756 4.39546 10.4747 4.30281 11.4176 4.14348C14.371 3.645 16.9514 2.37667 19.1691 0.367782C19.3969 0.161296 19.6431 0.0256837 19.9547 0.0694849C20.3022 0.117977 20.5102 0.336551 20.6549 0.649828C21.9658 3.4905 23.2826 6.32921 24.5992 9.16716C24.7047 9.39389 24.8225 9.61511 24.9352 9.83899L24.9709 10.2883C24.8576 10.4555 24.7731 10.6529 24.6276 10.785C21.9643 13.2091 18.8464 14.6912 15.2725 15.12C12.0434 15.507 9.17887 16.6788 6.6922 18.7746C6.42171 19.0026 6.13799 19.2158 5.8601 19.4361L5.46697 19.4673L5.46853 19.4679ZM12.5275 7.20584C11.1367 7.31336 10.0928 8.52364 10.1947 9.9096C10.2966 11.3061 11.5262 12.3651 12.9191 12.2559C14.3045 12.1473 15.3523 10.9284 15.2484 9.54562C15.1434 8.13881 13.9311 7.0973 12.5275 7.20584ZM16.5024 7.68794C16.5396 8.15595 16.9358 8.49595 17.4032 8.45956C17.863 8.42377 18.2132 8.01389 18.1766 7.55336C18.1403 7.09584 17.728 6.74429 17.2681 6.77934C16.806 6.81456 16.4651 7.21918 16.5024 7.68794ZM8.05603 10.9989C7.58461 11.0311 7.24332 11.4207 7.27459 11.8899C7.30555 12.3554 7.70334 12.7051 8.16745 12.6757C8.62932 12.6466 8.97801 12.2458 8.94767 11.7788C8.91715 11.3095 8.52521 10.9669 8.05609 10.9997L8.05603 10.9989Z" fill="#8271E2"/>
</svg>
