<svg width="16" height="16" viewBox="0 0 16 16" fill="none" xmlns="http://www.w3.org/2000/svg">
<g clip-path="url(#clip0_387_1797)">
<path d="M0.164312 11.7034C0.206187 11.4897 0.236812 11.2728 0.291812 11.0622C0.460875 10.4169 0.787437 9.85937 1.25869 9.38781C2.30431 8.34156 3.35212 7.2975 4.39619 6.24969C6.00369 4.63687 8.78744 4.75125 10.2352 6.91656C10.249 6.93719 10.2599 6.95937 10.2571 6.95469C9.99525 7.23094 9.76337 7.51969 9.48681 7.75656C9.15744 8.03875 8.6815 8.00094 8.35431 7.69812C7.97962 7.35125 7.55119 7.14312 7.03525 7.14562C6.56806 7.14781 6.15181 7.30094 5.81337 7.62562C5.41212 8.01031 5.02306 8.4075 4.62962 8.80031C3.99087 9.43812 3.34869 10.0731 2.71525 10.7162C1.89619 11.5475 1.9865 12.8212 2.90525 13.4987C3.58494 14 4.55994 13.9631 5.17431 13.3797C5.81025 12.7759 6.42275 12.1469 7.04056 11.5244C7.12775 11.4362 7.19681 11.4156 7.31681 11.4619C7.989 11.7209 8.68556 11.8141 9.40337 11.7422C9.454 11.7372 9.50494 11.735 9.55587 11.7331C9.56369 11.7331 9.57181 11.7406 9.59212 11.7512C9.54962 11.7969 9.51056 11.8412 9.469 11.8828C8.54931 12.8025 7.624 13.7169 6.71119 14.6434C6.06087 15.3034 5.29431 15.7131 4.36837 15.8131C4.34369 15.8159 4.32025 15.8281 4.29619 15.8359C4.07181 15.8359 3.84712 15.8359 3.62275 15.8359C3.58931 15.8262 3.5565 15.8119 3.52244 15.8078C2.05775 15.6419 0.724 14.5147 0.319625 13.0891C0.250875 12.8462 0.214937 12.5941 0.164 12.3462V11.7034H0.164312Z" fill="#8271E2"/>
<path d="M15.8356 4.29646C15.7996 4.48521 15.7721 4.67584 15.7268 4.8624C15.5652 5.52646 15.2449 6.10459 14.7624 6.58896C13.7037 7.65115 12.6515 8.72021 11.579 9.76802C10.0521 11.2602 7.70243 11.2043 6.22587 9.65365C6.06493 9.48458 5.93024 9.29052 5.78087 9.11021C5.72493 9.04271 5.72743 8.99458 5.79431 8.93083C5.99712 8.73708 6.19056 8.53365 6.39149 8.33802C6.76243 7.97709 7.27618 7.96177 7.65618 8.31209C7.99868 8.62771 8.38868 8.82802 8.85681 8.85209C9.41837 8.88084 9.89212 8.68021 10.2877 8.28271C11.0002 7.56677 11.7156 6.85396 12.4299 6.1399C12.7221 5.84771 13.0184 5.55959 13.3059 5.26271C14.2062 4.3324 13.9406 2.8574 12.7784 2.31771C12.1312 2.01709 11.3349 2.12958 10.8134 2.6299C10.1877 3.2299 9.57993 3.84865 8.96993 4.46521C8.87462 4.56177 8.80087 4.58552 8.66806 4.53427C8.00587 4.27959 7.31868 4.18802 6.61149 4.25677C6.55587 4.26208 6.49962 4.2649 6.44368 4.26708C6.43587 4.2674 6.42774 4.25927 6.40774 4.24834C6.45056 4.2024 6.48931 4.15802 6.53056 4.11677C7.45368 3.19333 8.38149 2.27427 9.29931 1.34552C9.94649 0.690522 10.7109 0.284897 11.6318 0.187084C11.6562 0.184585 11.6799 0.172085 11.7037 0.16396H12.3771C12.4052 0.173022 12.4331 0.186459 12.4621 0.190834C14.0631 0.436147 15.1171 1.3424 15.6593 2.85396C15.7474 3.09958 15.7787 3.36583 15.8362 3.62271C15.8362 3.84708 15.8362 4.07177 15.8362 4.29615L15.8356 4.29646Z" fill="#8271E2"/>
<path d="M15.8357 3.62305C15.7782 3.36617 15.7473 3.10023 15.6588 2.8543C15.1166 1.34305 14.0626 0.436484 12.4616 0.191172C12.4326 0.186797 12.4051 0.17336 12.3766 0.164297H15.8357C15.8357 1.31711 15.8357 2.47023 15.8357 3.62305Z" fill="white"/>
<path d="M0.164297 12.3463C0.215235 12.5941 0.250859 12.8463 0.319921 13.0891C0.724297 14.5147 2.05805 15.6419 3.52273 15.8078C3.5568 15.8116 3.58961 15.8262 3.62305 15.8359C2.47023 15.8359 1.31711 15.8359 0.164297 15.8359V12.3463Z" fill="white"/>
</g>
<defs>
<clipPath id="clip0_387_1797">
<rect width="16" height="16" fill="white" transform="translate(16 16) rotate(-180)"/>
</clipPath>
</defs>
</svg>
