<svg width="19" height="25" viewBox="0 0 19 25" fill="none" xmlns="http://www.w3.org/2000/svg">
<path d="M0.902053 16.8991H17.9554C18.2984 16.8991 18.6114 17.0223 18.8578 17.2221V1.33763C18.8578 0.80484 18.4249 0.375244 17.8921 0.375244H0.968659C0.435867 0.375244 0.00292969 0.80484 0.00292969 1.33763V17.2221C0.246019 17.019 0.559055 16.8991 0.902053 16.8991Z" fill="#005B47"/>
<path d="M16.2109 2.39307C16.2109 2.23658 16.081 2.11334 15.9145 2.11334C15.748 2.11334 15.6181 2.23653 15.6181 2.39307C15.6181 2.5529 15.7447 2.67281 15.9145 2.67281C16.0844 2.67615 16.2109 2.55296 16.2109 2.39307ZM14.9488 4.73079H16.9368V4.06813C16.9368 3.88831 16.9035 3.7684 16.8236 3.67184C16.737 3.56859 16.6005 3.51535 16.414 3.51535H14.9488V4.73079ZM11.1192 6.09281C11.0227 6.09281 10.9294 6.0795 10.8329 6.05283L10.7762 6.03952L10.8928 5.60992L10.9461 5.62323C11.0227 5.64323 11.0493 5.64657 11.1026 5.64657C11.2991 5.64657 11.3623 5.57996 11.3623 5.19369V2.80936H11.8118V4.73079H14.4959V2.80602H14.9454V3.0691H16.4107C16.7537 3.0691 16.9768 3.15904 17.1633 3.37211C17.3031 3.53194 17.3831 3.77837 17.3831 4.07142V5.18033H11.7652V5.20366C11.7819 5.54332 11.7186 5.78641 11.5787 5.93293C11.4289 6.09281 11.2191 6.09281 11.1192 6.09281ZM10.3866 5.77315C10.3866 5.61666 10.26 5.49676 10.0969 5.49676C9.93703 5.49676 9.8105 5.61995 9.8105 5.77315C9.8105 5.92964 9.93369 6.0462 10.0969 6.0462C10.2634 6.0462 10.3866 5.92964 10.3866 5.77315ZM9.57404 5.77315C9.57404 5.61666 9.44751 5.49676 9.28768 5.49676C9.12785 5.49676 9.00132 5.61995 9.00132 5.77315C9.00132 5.92964 9.1245 6.0462 9.28768 6.0462C9.45085 6.0462 9.57404 5.92964 9.57404 5.77315ZM7.0565 5.76313C7.0565 5.60663 6.92663 5.48673 6.76011 5.48673C6.5936 5.48673 6.46373 5.60992 6.46373 5.76313C6.46373 5.92296 6.59026 6.04286 6.76011 6.04286C6.92997 6.04286 7.0565 5.9263 7.0565 5.76313ZM2.75073 2.01683C2.75073 1.86362 2.6242 1.74377 2.46437 1.74377C2.30454 1.74377 2.17801 1.86368 2.17801 2.01683C2.17801 2.17332 2.30119 2.29322 2.46437 2.29322C2.62754 2.29322 2.75073 2.17332 2.75073 2.01683ZM3.55991 2.01683C3.55991 1.86362 3.43338 1.74377 3.27021 1.74377C3.11038 1.74377 2.98385 1.86368 2.98385 2.01683C2.98385 2.17332 3.10704 2.29322 3.27021 2.29322C3.43672 2.29322 3.55991 2.17332 3.55991 2.01683ZM2.78069 3.25226C2.37109 3.25226 1.93152 3.53534 1.93152 3.9949C1.93152 4.50441 2.35778 4.73085 2.78069 4.73085H3.05374V3.25226H2.78069ZM2.84061 5.17704C1.83824 5.17704 1.48193 4.541 1.48193 3.99484C1.48193 3.29554 2.07136 2.80602 2.91719 2.80602H3.05374V2.59957H3.50328V4.73085H6.53696V2.80602H6.98321V4.73079H9.81045V2.80602H10.25V5.17704H2.84061Z" fill="white"/>
<path d="M17.3833 6.67908H16.9337V10.1624H17.3833V6.67908ZM3.04398 8.24092V9.71944H2.77092C2.34801 9.71944 1.92176 9.49301 1.92176 8.98349C1.92176 8.52728 2.36132 8.24086 2.77092 8.24086H3.04398V8.24092ZM13.5038 8.24092V9.71944H12.8444L12.8377 9.7161C12.5447 9.54296 12.3748 9.27654 12.3748 8.97681C12.3748 8.49726 12.7944 8.24086 13.1907 8.24086L13.5038 8.24092ZM7.31315 9.27988C7.31315 9.74278 6.95684 10.0924 6.48398 10.0924C6.03773 10.0924 5.68476 9.7361 5.68476 9.27988C5.68476 8.82032 6.03444 8.46067 6.48398 8.46067C6.96347 8.46067 7.31315 8.80701 7.31315 9.27988ZM7.3997 10.1723L7.40638 10.1656H16.0945V6.67908H15.645V9.7161H13.95V7.79467H13.3306C12.4781 7.79467 11.9287 8.25757 11.9287 8.97687C11.9287 9.24663 12.0153 9.48304 12.1851 9.67951L12.2184 9.71616H10.0871V7.79472H9.63756V9.71944H7.68283L7.69279 9.68948C7.73607 9.56295 7.7594 9.4264 7.7594 9.28656C7.7594 8.56392 7.20996 8.01448 6.48398 8.01448C5.78467 8.01448 5.23851 8.57395 5.23851 9.28656C5.23851 9.42311 5.26185 9.55961 5.30178 9.68948L5.31175 9.71944H3.49351V7.58817H3.04398V7.79462H2.90742C2.0616 7.79462 1.47217 8.28413 1.47217 8.98344C1.47217 9.55622 1.84847 10.1656 2.90742 10.1656H5.5848L5.59148 10.1723C5.82794 10.4121 6.14427 10.5453 6.48064 10.5453C6.83026 10.542 7.16658 10.4088 7.3997 10.1723ZM13.8367 7.16526C13.8367 7.01205 13.7102 6.8922 13.547 6.8922C13.3872 6.8922 13.2607 7.01211 13.2607 7.16526C13.2607 7.32175 13.3839 7.44165 13.547 7.44165C13.7102 7.4417 13.8367 7.3218 13.8367 7.16526ZM13.0276 7.16526C13.0276 7.01205 12.901 6.8922 12.7412 6.8922C12.5814 6.8922 12.4548 7.01211 12.4548 7.16526C12.4548 7.32175 12.578 7.44165 12.7412 7.44165C12.9043 7.4417 13.0276 7.3218 13.0276 7.16526ZM10.5267 10.7617C10.5267 10.6053 10.4001 10.4854 10.237 10.4854C10.0771 10.4854 9.9506 10.6085 9.9506 10.7617C9.9506 10.9182 10.0738 11.0348 10.237 11.0348C10.4034 11.0349 10.5267 10.9183 10.5267 10.7617ZM9.71414 10.7617C9.71414 10.6053 9.58761 10.4854 9.42778 10.4854C9.26794 10.4854 9.14141 10.6085 9.14141 10.7617C9.14141 10.9182 9.2646 11.0348 9.42778 11.0348C9.59089 11.0349 9.71414 10.915 9.71414 10.7617ZM2.74091 7.00208C2.74091 6.84888 2.61438 6.72903 2.45455 6.72903C2.29472 6.72903 2.16819 6.84893 2.16819 7.00208C2.16819 7.15857 2.29137 7.27847 2.45455 7.27847C2.61772 7.27853 2.74091 7.16197 2.74091 7.00208ZM3.26044 7.27853C3.09727 7.27853 2.97408 7.15863 2.97408 7.00214C2.97408 6.84893 3.10061 6.72909 3.26044 6.72909C3.42362 6.72909 3.55015 6.84899 3.55015 7.00214C3.55015 7.16197 3.4269 7.27853 3.26044 7.27853Z" fill="white"/>
<path d="M17.383 11.6674H16.9335V15.1507H17.383V11.6674ZM8.89801 13.4889H10.3133C10.4998 13.4889 10.6396 13.5422 10.7229 13.6454C10.7995 13.742 10.8361 13.8619 10.8361 14.0417V14.7044H8.89467V13.4889H8.89801V13.4889ZM14.1795 14.2682C14.1795 14.7311 13.8232 15.0807 13.3503 15.0807C12.9041 15.0807 12.5511 14.7244 12.5511 14.2682C12.5511 13.8086 12.9008 13.449 13.3503 13.449C13.8331 13.449 14.1795 13.792 14.1795 14.2682ZM14.2694 15.1573L14.2761 15.1506H16.0943V11.6673H15.6448V14.7044H14.5525L14.5625 14.6744C14.6058 14.5479 14.6291 14.4113 14.6291 14.2715C14.6291 13.5489 14.0797 12.9994 13.3537 12.9994C12.6544 12.9994 12.1082 13.5589 12.1082 14.2715C12.1082 14.408 12.1282 14.5445 12.1715 14.6744L12.1815 14.7044H11.2857V14.0417C11.2857 13.7487 11.2091 13.5022 11.0659 13.3424C10.8794 13.1293 10.6563 13.0394 10.3133 13.0394H8.89801V12.7763H8.44848V14.7011H7.36953V11.6641H6.92V15.1473H12.4546L12.4613 15.154C12.6977 15.3938 13.014 15.527 13.3504 15.527C13.7 15.5303 14.033 15.3938 14.2694 15.1573ZM10.1135 12.3667C10.1135 12.2102 9.98359 12.087 9.81708 12.087C9.65056 12.087 9.52069 12.2102 9.52069 12.3667C9.52069 12.5265 9.64722 12.6464 9.81708 12.6464C9.98693 12.6498 10.1135 12.5299 10.1135 12.3667ZM5.7211 12.147C5.7211 11.9905 5.59123 11.8672 5.42471 11.8672C5.2582 11.8672 5.12833 11.9904 5.12833 12.147C5.12833 12.3068 5.25486 12.4267 5.42471 12.4267C5.59457 12.43 5.7211 12.3068 5.7211 12.147ZM3.05369 13.2259V14.7045H2.78064C2.35772 14.7045 1.93147 14.478 1.93147 13.9685C1.93147 13.5123 2.37103 13.2259 2.78064 13.2259H3.05369ZM5.79433 13.2259V14.7045H5.13495L5.12827 14.7011C4.83523 14.528 4.66537 14.2616 4.66537 13.9619C4.66537 13.6055 4.95173 13.2259 5.48124 13.2259H5.79433ZM6.24392 15.1507V12.7797H5.62453C4.77202 12.7797 4.22257 13.2426 4.22257 13.9619C4.22257 14.2316 4.30917 14.468 4.47897 14.6645L4.51228 14.7011H3.50662V12.5699H3.05374V12.7763H2.91719C2.07136 12.7763 1.48193 13.2658 1.48193 13.9651C1.48193 14.5379 1.85823 15.1473 2.91719 15.1473H6.24392V15.1507ZM2.75067 11.9904C2.75067 11.8372 2.62415 11.7174 2.46431 11.7174C2.30448 11.7174 2.17795 11.8373 2.17795 11.9904C2.17795 12.1469 2.30114 12.2668 2.46431 12.2668C2.62749 12.2668 2.75067 12.147 2.75067 11.9904ZM3.27016 12.2668C3.10698 12.2668 2.98379 12.1469 2.98379 11.9904C2.98379 11.8372 3.11032 11.7174 3.27016 11.7174C3.43333 11.7174 3.55986 11.8373 3.55986 11.9904C3.55986 12.147 3.43667 12.2668 3.27016 12.2668Z" fill="white"/>
<path d="M17.8925 24.6248H0.965729C0.432937 24.6248 0 24.1919 0 23.6591V18.3676C0 17.8348 0.432937 17.4019 0.965729 17.4019H17.8925C18.4253 17.4019 18.8583 17.8348 18.8583 18.3676V23.6591C18.8583 24.1919 18.4253 24.6248 17.8925 24.6248Z" fill="#D4A007"/>
<path d="M4.1425 22.357L5.28471 18.5107H6.88314C6.35363 20.1058 5.21476 23.5225 5.20145 23.5225H3.08354C3.07023 23.5225 1.93136 20.1058 1.40186 18.5107H3.00028L4.1425 22.357Z" fill="white"/>
<path d="M17.4563 18.5107H12.1548L12.5544 19.6596H14.2461V23.5192H15.7679V19.6596H17.4563V18.5107Z" fill="white"/>
<path d="M12.0782 20.3456L11.9151 19.9927C11.0826 20.5388 9.70388 22.1772 9.70388 22.1772L9.19771 21.6078L9.01454 22.2271L8.99121 22.3171C9.18435 22.5935 9.71051 23.5192 9.71051 23.5192C10.9327 21.3047 12.0782 20.3456 12.0782 20.3456Z" fill="#005B47"/>
<path d="M9.52078 19.6729L10.0403 21.4312C10.3566 21.0815 10.7762 20.6387 11.1758 20.2757C10.8462 19.29 10.5831 18.5107 10.5765 18.5107H8.45854C8.44523 18.5107 7.30636 21.9274 6.77686 23.5225H8.37528L9.52078 19.6729Z" fill="white"/>
<path d="M10.4399 22.7666L10.663 23.5192H12.2615C12.065 22.9331 11.7886 22.1006 11.5155 21.2814C11.2159 21.641 10.8396 22.1338 10.4399 22.7666Z" fill="white"/>
</svg>
